Coordinates
version=1
nRows=13
nColumns=22
inDegrees=yes

Units are S.I. units (second, meters, Newtons, ...)
If the header above contains a line with 'inDegrees', this indicates whether rotational values are in degrees (yes) or radians (no).

endheader
time	pelvis_tilt	pelvis_list	pelvis_rotation	pelvis_tx	pelvis_ty	pelvis_tz	hip_flexion_r	hip_adduction_r	hip_rotation_r	knee_angle_r	ankle_angle_r	subtalar_angle_r	hip_flexion_l	hip_adduction_l	hip_rotation_l	knee_angle_l	ankle_angle_l	subtalar_angle_l	lumbar_extension	lumbar_bending	lumbar_rotation
      4.24000000	      4.44417152	     -1.43233853	    -83.60966428	      0.38778582	      1.06676674	      0.47496426	     -4.42768817	     -2.21630138	      8.38183998	    -38.59877631	      4.57224565	      9.83778411	     13.38982996	      3.88723851	      5.68094399	    -12.33182170	      1.15998759	      3.07138599	     -1.73619639	     -6.28653010	      0.40502878
      4.25000000	      4.70314947	     -1.49687179	    -84.02037312	      0.39097179	      1.06776979	      0.48170395	     -3.79040920	     -2.63108165	      8.50954407	    -40.09902713	      2.82509187	     10.81107952	     12.59622364	      4.18789068	      5.13303728	    -11.81777785	      1.40770396	      2.89286395	     -1.82233041	     -6.58219004	      0.43135199
      4.26000000	      4.97562596	     -1.56968350	    -84.43829964	      0.39407268	      1.06869559	      0.48829295	     -3.12570959	     -3.06093300	      8.60956116	    -41.59957483	      1.11673893	     11.74830889	     11.78693014	      4.51043247	      4.63288277	    -11.26937985	      1.65200264	      2.72967856	     -1.91700388	     -6.88939310	      0.44962165
      4.27000000	      5.26380321	     -1.64520019	    -84.84761007	      0.39710427	      1.06953502	      0.49473528	     -2.43572486	     -3.50748229	      8.66857037	    -43.09199412	     -0.48915591	     12.60059496	     10.98824987	      4.86206732	      4.20220157	    -10.72431941	      1.89789287	      2.59136783	     -2.01300920	     -7.21546172	      0.44711678
      4.28000000	      5.54954217	     -1.72815467	    -85.21348104	      0.40012595	      1.07030311	      0.50099718	     -1.73651527	     -3.95243345	      8.65850785	    -44.55800292	     -1.96467629	     13.42128627	     10.22820571	      5.23080688	      3.85684413	    -10.23473097	      2.12451468	      2.45916276	     -2.12245992	     -7.53270734	      0.36737476
      4.29000000	      5.82524728	     -1.81482169	    -85.52795965	      0.40315283	      1.07099536	      0.50706598	     -1.02925762	     -4.39072221	      8.57444143	    -45.98963000	     -3.24575610	     14.15630796	      9.52938789	      5.60975854	      3.59241039	     -9.83617088	      2.34547774	      2.31749554	     -2.24328674	     -7.83368455	      0.21647919
      4.30000000	      6.11528724	     -1.88975267	    -85.79811171	      0.40619451	      1.07160623	      0.51300002	     -0.30919332	     -4.86013165	      8.40639979	    -47.37438658	     -4.26795197	     14.54740320	      8.88551903	      6.02151424	      3.36976994	     -9.49104789	      2.53524287	      2.20937153	     -2.35028674	     -8.14541926	     -0.00496361
      4.31000000	      6.39282194	     -1.96260689	    -86.02399742	      0.40925075	      1.07213950	      0.51875030	      0.41535250	     -5.33385726	      8.17489779	    -48.70447514	     -4.97462676	     14.86203356	      8.30775770	      6.43888224	      3.20656064	     -9.23968838	      2.75460068	      2.04939272	     -2.45894853	     -8.43656423	     -0.26057721
      4.32000000	      6.65542072	     -2.02050061	    -86.20897466	      0.41232242	      1.07259327	      0.52431219	      1.15190130	     -5.80985591	      7.89762601	    -49.96755289	     -5.35261772	     14.99803120	      7.80142058	      6.85739049	      3.07789925	     -9.06191199	      2.97270730	      1.84516688	     -2.55819619	     -8.70307935	     -0.55513277
      4.33000000	      6.91332256	     -2.05253340	    -86.36106816	      0.41538819	      1.07296286	      0.52968089	      1.91069941	     -6.30044686	      7.58689167	    -51.15317028	     -5.40460529	     14.90160200	      7.37762224	      7.28577893	      2.96359163	     -8.95974524	      3.15708571	      1.58156515	     -2.63463723	     -8.96020131	     -0.87619350
      4.34000000	      7.13515910	     -2.03750637	    -86.49368669	      0.41840938	      1.07322620	      0.53484750	      2.71811428	     -6.76816807	      7.25541073	    -52.25035243	     -5.21312801	     14.42513648	      7.05479110	      7.68767396	      2.86992093	     -8.92149700	      3.34478054	      1.19408869	     -2.65963525	     -9.17756537	     -1.18611948
      4.35000000	      7.33249907	     -2.05507534	    -86.60637862	      0.42137686	      1.07351267	      0.53980587	      3.47280141	     -7.21622111	      6.91711209	    -53.23341003	     -4.75273424	     13.73078732	      6.75623922	      8.06592024	      2.74896115	     -8.96398954	      3.53972155	      0.85718068	     -2.73571031	     -9.35744057	     -1.50805245
      4.36000000	      7.50879750	     -2.06711708	    -86.72845799	      0.42422054	      1.07379321	      0.54461553	      4.22146716	     -7.63981324	      6.60518430	    -54.09980943	     -4.11678685	     12.87370277	      6.47368682	      8.42027185	      2.65089557	     -9.00159168	      3.71374533	      0.53771067	     -2.80077400	     -9.51703917	     -1.79073556
